<svg xmlns="http://www.w3.org/2000/svg" viewBox="0 0 1200 750" role="img" aria-labelledby="title desc">
  <title id="title">Private credit risk curve abstract thumbnail</title>
  <desc id="desc">A risk curve with funding pressure and public repricing lines.</desc>
  <rect width="1200" height="750" fill="#fbfaf7"/>
  <g opacity=".95">
    <path d="M0 476C210 402 322 430 500 356C690 278 780 158 1006 184C1082 193 1136 216 1200 205V750H0Z" fill="#0f766e" opacity=".24"/>
    <path d="M0 610C194 520 350 568 540 472C724 380 840 316 1010 358C1080 376 1130 404 1200 388V750H0Z" fill="#af4c23" opacity=".25"/>
    <path d="M0 696C290 600 452 632 636 548C778 483 890 510 1200 448V750H0Z" fill="#172033" opacity=".30"/>
  </g>
  <path d="M112 550C264 448 356 354 498 330C660 302 750 382 862 456C972 529 1040 572 1120 501" fill="none" stroke="#af4c23" stroke-width="10" stroke-linecap="round"/>
  <path d="M112 594C280 542 402 500 540 486C711 469 856 510 1120 426" fill="none" stroke="#0f766e" stroke-width="5" stroke-linecap="round" opacity=".62"/>
  <g fill="#fff" stroke="#d8d3c8" stroke-width="2">
    <rect x="120" y="176" width="184" height="110"/>
    <rect x="384" y="128" width="184" height="110"/>
    <rect x="648" y="202" width="184" height="110"/>
    <rect x="912" y="296" width="184" height="110"/>
  </g>
  <g font-family="Arial,sans-serif" fill="#0a1324">
    <text x="142" y="218" font-size="22" font-weight="700">SOFR</text>
    <text x="142" y="250" font-size="17" fill="#5e6879">funding pressure</text>
    <text x="406" y="170" font-size="22" font-weight="700">PIK</text>
    <text x="406" y="202" font-size="17" fill="#5e6879">stress delay</text>
    <text x="670" y="244" font-size="22" font-weight="700">BDC</text>
    <text x="670" y="276" font-size="17" fill="#5e6879">public proxy</text>
    <text x="934" y="338" font-size="22" font-weight="700">OAS</text>
    <text x="934" y="370" font-size="17" fill="#5e6879">confirmation</text>
  </g>
</svg>
